<svg width="18" height="15" viewBox="0 0 18 15" fill="none" xmlns="http://www.w3.org/2000/svg">
<path d="M16.9026 12.9843L9.68165 1.21261C9.20114 0.428103 8.41494 0.439191 7.93428 1.22358L0.713378 12.9791C0.232861 13.7642 0.591668 14.3703 1.51105 14.3703H16.1044C17.0244 14.3703 17.3833 13.768 16.9027 12.9842L16.9026 12.9843ZM8.80167 3.81818C9.26412 3.81818 9.62197 4.32901 9.59825 4.95331L9.45187 8.71534C9.42816 9.33908 9.13472 9.84991 8.80002 9.84991C8.46533 9.84991 8.17134 9.33908 8.14762 8.71534L8.00288 4.95331C7.97917 4.32901 8.33813 3.81807 8.80167 3.81807L8.80167 3.81818ZM8.80167 12.6843C8.21807 12.6843 7.81787 12.2577 7.83008 11.6748C7.83008 11.0791 8.2314 10.6652 8.80167 10.6652C9.39622 10.6652 9.77218 11.0791 9.78491 11.6748C9.78491 12.2577 9.39622 12.6843 8.80167 12.6843Z" fill="white"/>
</svg>
