<svg width="17" height="15" viewBox="0 0 17 15" fill="none" xmlns="http://www.w3.org/2000/svg">
<path d="M16.4026 12.9843L9.18165 1.21261C8.70114 0.428103 7.91494 0.439191 7.43428 1.22358L0.213378 12.9791C-0.267139 13.7642 0.0916683 14.3703 1.01105 14.3703H15.6044C16.5244 14.3703 16.8833 13.768 16.4027 12.9842L16.4026 12.9843ZM8.30167 3.81818C8.76412 3.81818 9.12197 4.32901 9.09825 4.95331L8.95187 8.71534C8.92816 9.33908 8.63472 9.84991 8.30002 9.84991C7.96533 9.84991 7.67134 9.33908 7.64762 8.71534L7.50288 4.95331C7.47917 4.32901 7.83813 3.81807 8.30167 3.81807L8.30167 3.81818ZM8.30167 12.6843C7.71807 12.6843 7.31787 12.2577 7.33008 11.6748C7.33008 11.0791 7.7314 10.6652 8.30167 10.6652C8.89622 10.6652 9.27218 11.0791 9.28491 11.6748C9.28491 12.2577 8.89622 12.6843 8.30167 12.6843Z" fill="#4D4D4D"/>
</svg>
