<svg width="9" height="6" viewBox="0 0 9 6" fill="none" xmlns="http://www.w3.org/2000/svg">
<path fill-rule="evenodd" clip-rule="evenodd" d="M0.234229 0.451262C0.384252 0.301285 0.587698 0.217033 0.799829 0.217033C1.01196 0.217033 1.21541 0.301285 1.36543 0.451262L3.99983 3.08566L6.63423 0.451262C6.70803 0.374854 6.7963 0.313908 6.89391 0.271981C6.99151 0.230054 7.09649 0.207985 7.20271 0.207061C7.30893 0.206138 7.41428 0.22638 7.51259 0.266604C7.61091 0.306829 7.70023 0.366232 7.77535 0.441346C7.85046 0.51646 7.90986 0.605781 7.95009 0.704099C7.99031 0.802416 8.01055 0.907759 8.00963 1.01398C8.00871 1.12021 7.98664 1.22518 7.94471 1.32279C7.90278 1.42039 7.84184 1.50866 7.76543 1.58246L4.56543 4.78246C4.41541 4.93244 4.21196 5.01669 3.99983 5.01669C3.7877 5.01669 3.58425 4.93244 3.43423 4.78246L0.234229 1.58246C0.0842524 1.43244 0 1.22899 0 1.01686C0 0.80473 0.0842524 0.601284 0.234229 0.451262Z" fill="#333333"/>
</svg>
