<svg width="16" height="20" viewBox="0 0 16 20" fill="none" xmlns="http://www.w3.org/2000/svg">
<path d="M10.8685 3.49478H1.57954C0.707927 3.49478 0 4.20271 0 5.07432V18.4022C0 19.2738 0.707927 19.9817 1.57954 19.9817H10.8685C11.7401 19.9817 12.4481 19.2738 12.4481 18.4022V5.07432C12.444 4.20271 11.736 3.49478 10.8685 3.49478ZM11.3391 18.3981C11.3391 18.66 11.1263 18.8727 10.8644 18.8727H1.57544C1.31355 18.8727 1.10076 18.66 1.10076 18.3981V5.07432C1.10076 4.81243 1.31355 4.59964 1.57544 4.59964H10.8644C11.1263 4.59964 11.3391 4.81243 11.3391 5.07432V18.3981Z" fill="#383838"/>
<path d="M14.4205 0H5.13154C4.25993 0 3.552 0.707927 3.552 1.57954C3.552 1.88644 3.79753 2.13196 4.10443 2.13196C4.41133 2.13196 4.65686 1.88644 4.65686 1.57954C4.65686 1.31764 4.86965 1.10486 5.13154 1.10486H14.4205C14.6824 1.10486 14.8952 1.31764 14.8952 1.57954V14.9074C14.8952 15.1693 14.6824 15.3821 14.4205 15.3821C14.1136 15.3821 13.8681 15.6276 13.8681 15.9345C13.8681 16.2414 14.1136 16.4869 14.4205 16.4869C15.2921 16.4869 16.0001 15.779 16.0001 14.9074V1.57954C16.0001 0.707927 15.2921 0 14.4205 0Z" fill="#383838"/>
</svg>
