<svg width="15" height="17" viewBox="0 0 15 17" fill="none" xmlns="http://www.w3.org/2000/svg">
<path d="M13.423 2.63326H13.2436C11.3413 2.63326 10.1028 2.1668 8.14601 0.713211C7.95444 0.571118 7.72717 0.5 7.49977 0.5C7.27237 0.5 7.04512 0.571118 6.85354 0.713357C4.89709 2.16683 3.65836 2.63329 1.75633 2.63329H1.5769C0.982053 2.63329 0.5 3.11075 0.5 3.69993V8.50005C0.5 10.8709 1.66915 13.0055 3.88127 14.6726C5.48123 15.8787 7.07763 16.4212 7.14482 16.4438C7.25645 16.4814 7.37296 16.5 7.48963 16.5C7.6057 16.5 7.72206 16.4814 7.83369 16.4441C7.90105 16.4215 9.50217 15.8793 11.1072 14.6736C13.3268 13.0062 14.5 10.8713 14.5 8.49996V3.69984C14.5 3.11082 14.0178 2.63321 13.423 2.63321L13.423 2.63326ZM1.57693 8.49986H7.49998V1.5664C9.65377 3.16635 11.0897 3.69967 13.2438 3.69967C13.3428 3.69967 13.4232 3.77929 13.4232 3.87739V8.49958H7.50014V15.4293C7.496 15.4308 7.48993 15.433 7.48993 15.433C7.48993 15.433 1.57711 13.4519 1.57711 8.49949L1.57693 8.49986Z" fill="white"/>
</svg>
