<svg width="16" height="20" viewBox="0 0 16 20" fill="none" xmlns="http://www.w3.org/2000/svg">
<path d="M14.3333 2.66655H11.9332C11.7785 1.91413 11.3692 1.23807 10.7741 0.752418C10.179 0.266588 9.43467 0.000855891 8.66657 0H7.33328C6.565 0.000879811 5.82069 0.266588 5.22576 0.752418C4.63064 1.23807 4.22135 1.91413 4.06652 2.66655H1.66656C1.07108 2.66655 0.520834 2.98434 0.2233 3.49992C-0.0744332 4.01566 -0.0744332 4.65091 0.2233 5.16665C0.520857 5.68222 1.07108 5.99984 1.66656 5.99984H14.3333C14.9286 5.99984 15.4788 5.68222 15.7766 5.16665C16.0743 4.65091 16.0743 4.01566 15.7766 3.49992C15.4788 2.98436 14.9286 2.66655 14.3333 2.66655ZM5.4559 2.66655C5.59333 2.27802 5.84742 1.94139 6.18332 1.70264C6.51941 1.46403 6.92096 1.33505 7.33323 1.33329H8.66653C9.07864 1.33505 9.48035 1.46403 9.81626 1.70264C10.1524 1.94142 10.4065 2.27802 10.5439 2.66655H5.4559Z" fill="#D82122"/>
<path d="M1.33258 16.8268C1.33346 17.6681 1.66814 18.4749 2.26289 19.0699C2.85782 19.6646 3.66443 19.9993 4.50591 20.0002H11.4927C12.334 19.9993 13.1406 19.6646 13.7355 19.0699C14.3305 18.4749 14.6652 17.6681 14.666 16.8268V7.33365H1.33258V16.8268Z" fill="#D82122"/>
</svg>
