<svg width="31" height="24" viewBox="0 0 31 24" fill="none" xmlns="http://www.w3.org/2000/svg">
<path d="M26.2828 2.02698C29.7839 7.25721 31.5129 13.1568 30.8665 19.9485C30.8638 19.9773 30.8491 20.0036 30.8258 20.021C28.1746 21.999 25.6058 23.1995 23.0731 23.9956C23.0534 24.0017 23.0323 24.0014 23.0128 23.9947C22.9933 23.988 22.9763 23.9752 22.9643 23.9582C22.3791 23.131 21.8475 22.2589 21.3817 21.3431C21.355 21.2892 21.3794 21.2242 21.4344 21.2029C22.2788 20.8797 23.0817 20.4923 23.854 20.0336C23.9148 19.9973 23.9187 19.9088 23.8625 19.8662C23.6986 19.7426 23.5362 19.6127 23.3808 19.4827C23.3518 19.4587 23.3126 19.454 23.2797 19.4701C18.2658 21.8227 12.7734 21.8227 7.70027 19.4701C7.66733 19.4552 7.6282 19.4603 7.59991 19.4839C7.44491 19.6139 7.28216 19.7426 7.1198 19.8662C7.06361 19.9088 7.06826 19.9973 7.12949 20.0336C7.90177 20.4836 8.70467 20.8797 9.54787 21.2045C9.60251 21.2258 9.62847 21.2892 9.60134 21.3431C9.14564 22.2601 8.61399 23.1322 8.01802 23.9594C7.99206 23.9929 7.94943 24.0082 7.90913 23.9956C5.38845 23.1995 2.81972 21.999 0.168447 20.021C0.14636 20.0036 0.130472 19.9761 0.128147 19.9473C-0.412027 14.0726 0.688858 8.12419 4.70761 2.0258C4.7173 2.00965 4.73203 1.99705 4.74908 1.98957C6.72649 1.06747 8.84494 0.389085 11.0591 0.00165975C11.0994 -0.00463984 11.1397 0.0142589 11.1606 0.0504816C11.4342 0.542637 11.7469 1.17378 11.9585 1.68956C14.2924 1.32733 16.6627 1.32733 19.0455 1.68956C19.2571 1.1848 19.5589 0.542637 19.8313 0.0504816C19.841 0.0325119 19.8561 0.0181156 19.8743 0.00934791C19.8925 0.000580239 19.913 -0.00211053 19.9328 0.00165975C22.1482 0.390266 24.2666 1.06865 26.2425 1.98957C26.2599 1.99705 26.2743 2.00965 26.2828 2.02698ZM13.145 13.1969C13.1694 11.4602 11.9232 10.0231 10.3589 10.0231C8.80736 10.0231 7.57317 11.4476 7.57317 13.1969C7.57317 14.9459 8.83177 16.3704 10.3589 16.3704C11.9108 16.3704 13.145 14.9459 13.145 13.1969ZM23.4455 13.1969C23.4699 11.4602 22.2237 10.0231 20.6598 10.0231C19.1079 10.0231 17.8737 11.4476 17.8737 13.1969C17.8737 14.9459 19.1323 16.3704 20.6598 16.3704C22.2237 16.3704 23.4455 14.9459 23.4455 13.1969Z" fill="#0177FB"/>
</svg>
