<svg width="10" height="14" viewBox="0 0 10 14" fill="none" xmlns="http://www.w3.org/2000/svg">
<path d="M9.01004 8.13428C9.01026 8.20756 8.98506 8.27918 8.93821 8.3383L4.80897 13.8523C4.73982 13.9448 4.62651 13.9999 4.50561 13.9999C4.38493 13.9999 4.27161 13.9448 4.20247 13.8523L0.0689386 8.33138C-0.0379072 8.19189 -0.0187265 8.00036 0.113774 7.88169C0.246493 7.76302 0.452156 7.75323 0.597142 7.85858L4.50557 10.6263L8.414 7.86066H8.41422C8.47356 7.81777 8.54538 7.793 8.62011 7.78904H8.64398C8.84652 7.79091 9.00979 7.94456 9.01002 8.1338L9.01004 8.13428Z" fill="#6C6C6C"/>
<path d="M8.64032 6.09553L4.82269 0.167383C4.75577 0.0634978 4.63554 0 4.50572 0C4.37612 0 4.25567 0.0634978 4.18897 0.167383L0.371111 6.09553C0.274527 6.24584 0.313785 6.43967 0.462567 6.54668L4.2798 9.29538C4.41297 9.39156 4.59878 9.39156 4.73195 9.29538L8.54918 6.54668C8.69774 6.43967 8.73722 6.24584 8.64041 6.09553H8.64032ZM8.03451 6.15133C7.99994 6.22273 7.93637 6.27853 7.85763 6.30643C7.77911 6.33412 7.6919 6.33141 7.61516 6.29915L4.62307 5.03314C4.54856 5.00171 4.46313 5.00171 4.38863 5.03314L1.39654 6.29771C1.31958 6.33143 1.23147 6.33518 1.15184 6.3077C1.07221 6.28043 1.00774 6.22442 0.972722 6.15218C0.937701 6.07994 0.935024 5.99771 0.965584 5.92379C0.996143 5.84988 1.05704 5.79055 1.13488 5.75891L4.37481 4.38797C4.45868 4.35216 4.55503 4.35216 4.63891 4.38797L7.87883 5.75891C8.03764 5.82698 8.10746 6.00249 8.03453 6.15072L8.03451 6.15133Z" fill="#6C6C6C"/>
</svg>
