<svg width="20" height="20" viewBox="0 0 20 20" fill="none" xmlns="http://www.w3.org/2000/svg">
<path d="M17.1369 0.501822C16.7607 0.50574 16.3863 0.631313 16.0926 0.917336L7.669 9.11808L7.64606 9.14041C7.41169 9.35767 7.36783 9.51557 7.27247 9.73421C7.17349 9.96145 7.08196 10.2359 7.00571 10.5431C6.85302 11.1575 6.76229 11.9107 6.89909 12.6804C6.95059 12.9668 7.19965 13.2091 7.49378 13.2593C8.28443 13.3923 9.05834 13.3042 9.68923 13.1555C10.0047 13.0812 10.2791 12.9923 10.5124 12.8957C10.7367 12.803 10.8993 12.7525 11.1222 12.5247C11.1315 12.5153 11.1357 12.5125 11.1451 12.5023L16.1307 7.64883C16.4293 7.39141 16.444 6.88342 16.1609 6.60994C15.8779 6.33647 15.3564 6.35448 15.0941 6.64697L10.1238 11.4856C10.1393 11.4628 10.0497 11.5371 9.94089 11.582C9.79564 11.6419 9.58883 11.7103 9.3462 11.7675C9.03116 11.8417 8.66783 11.8758 8.30953 11.8788C8.31315 11.5316 8.34795 11.1819 8.4238 10.8769C8.48254 10.6408 8.5604 10.432 8.62196 10.2906C8.65697 10.2102 8.68795 10.1615 8.69056 10.1495L15.6124 3.40365L17.0149 4.77655L16.5575 5.22183C16.2861 5.48611 16.2861 5.96683 16.5575 6.23113C16.8289 6.4954 17.3227 6.4954 17.5941 6.23113L19.5685 4.30166C20.2412 3.64793 20.0728 2.61081 19.4389 1.99369C19.1136 1.67711 18.7885 1.36033 18.4632 1.04378C18.1462 0.735231 17.7262 0.538553 17.2968 0.502092C17.2431 0.497587 17.1904 0.501701 17.1367 0.502092L17.1369 0.501822ZM17.1292 1.92662C17.124 1.93172 17.2485 1.8796 17.4266 2.05278C17.7517 2.37211 18.0808 2.6873 18.4099 3.0027C18.588 3.17607 18.5338 3.29773 18.5395 3.29205L18.0516 3.76692L16.649 2.39403L17.1292 1.92662ZM2.43947 3.8265C1.10064 3.8265 0 4.89789 0 6.20127V17.1252C0 18.4286 1.10064 19.5 2.43947 19.5H13.6606C14.9994 19.5 16.1001 18.4286 16.1001 17.1252V10.2385C16.1055 9.86212 15.7548 9.51597 15.3682 9.51597C14.9815 9.51597 14.6309 9.86213 14.6363 10.2385V17.1252C14.6363 17.6638 14.2138 18.0751 13.6606 18.0751H2.43947C1.88624 18.0751 1.46377 17.6638 1.46377 17.1252V6.20127C1.46377 5.66275 1.88624 5.25135 2.43947 5.25135H10.2455C10.6322 5.25664 10.9877 4.91538 10.9877 4.53885C10.9877 4.16233 10.632 3.82109 10.2455 3.82635L2.43947 3.8265Z" fill="#3A82E9"/>
</svg>
