<svg width="31" height="22" viewBox="0 0 31 22" fill="none" xmlns="http://www.w3.org/2000/svg">
<path d="M1.84155 0.629756C2.38537 0.221824 3.04116 0.00145682 3.7148 0H27.2862C27.9454 0.000580722 28.5882 0.210787 29.1261 0.601594L16.3887 9.19685C16.1254 9.37424 15.8178 9.46919 15.5027 9.46977C15.188 9.47006 14.8797 9.37628 14.6162 9.19946L1.84155 0.629756ZM17.5645 11.0349C16.9528 11.448 16.237 11.6687 15.5049 11.6699C14.7731 11.671 14.0564 11.4527 13.4436 11.0416L0.624435 2.44112C0.54582 2.72042 0.50396 3.00931 0.5 3.29997V18.6999C0.501131 19.5748 0.839921 20.4135 1.4426 21.0323C2.04523 21.651 2.86221 21.9991 3.71431 22H27.2857C28.138 21.9991 28.9551 21.651 29.5577 21.0323C30.1603 20.4135 30.4991 19.5748 30.5 18.6999V3.29997C30.4958 2.99424 30.4497 2.69054 30.3628 2.39786L17.5645 11.0349Z" fill="#636363"/>
</svg>
