<svg width="112" height="26" viewBox="0 0 112 26" fill="none" xmlns="http://www.w3.org/2000/svg">
<path d="M25.6004 6.46203L14.2594 20.4676L14.2573 20.4652V14.4603L22.1861 3.70184L25.6004 6.46203Z" fill="#2C2C2C"/>
<path d="M14.257 14.4596V0.5C8.16097 6.37113 1.94287 5.28341 1.94287 5.28341C1.94287 20.608 14.257 25.5 14.257 25.5V20.4649L7.79149 14.4276L10.7896 11.2216L14.257 14.4596Z" fill="#2C2C2C"/>
<path d="M35.6001 8.88078H37.1459C37.5467 8.88078 37.8902 9.02307 38.1765 9.30764C38.4627 9.59222 38.6059 9.93371 38.6059 10.3321V20.2353H35.6001V8.88078ZM35.6001 5.55127H37.1459C37.5467 5.55127 37.8902 5.69356 38.1765 5.97813C38.4627 6.2627 38.6059 6.60419 38.6059 7.0026V7.899H35.6001V5.55127Z" fill="#2C2C2C"/>
<path d="M49.7959 20.2353H46.8331V13.5763V12.9786C46.8331 12.2957 46.6184 11.7977 46.189 11.4846C45.7882 11.1716 45.3302 11.0151 44.8149 11.0151C44.2997 11.0151 43.8416 11.1716 43.4409 11.4846C43.0401 11.7977 42.8397 12.2957 42.8397 12.9786V20.2353H39.8339V13.5763C39.8339 11.6411 40.3349 10.3463 41.3368 9.69182C42.3674 9.0373 43.4981 8.68158 44.7291 8.62467C45.3875 8.62467 46.0316 8.69581 46.6613 8.8381C47.2911 8.98038 47.8636 9.26496 48.3789 9.69182C48.8083 9.32187 49.3093 9.06576 49.8818 8.92347C50.483 8.75272 51.0984 8.65312 51.7282 8.62467C52.9878 8.62467 54.1471 8.95193 55.2063 9.60645C56.2655 10.261 56.7951 11.5842 56.7951 13.5763V20.2353H55.2922C54.8628 20.2353 54.505 20.1072 54.2187 19.8511C53.9611 19.5665 53.8323 19.2108 53.8323 18.7839V12.9786C53.8323 12.2957 53.6176 11.7977 53.1882 11.4846C52.7874 11.1716 52.3294 11.0151 51.8141 11.0151C51.2988 11.0151 50.8265 11.1716 50.3971 11.4846C49.9963 11.7977 49.7959 12.2957 49.7959 12.9786V13.5763V20.2353Z" fill="#2C2C2C"/>
<path d="M68.6722 20.2353H65.7093V13.5763V12.9786C65.7093 12.2957 65.4946 11.7977 65.0653 11.4846C64.6645 11.1716 64.2065 11.0151 63.6912 11.0151C63.1759 11.0151 62.7179 11.1716 62.3171 11.4846C61.9163 11.7977 61.716 12.2957 61.716 12.9786V20.2353H58.7102V13.5763C58.7102 11.6411 59.2112 10.3463 60.2131 9.69182C61.2436 9.0373 62.3744 8.68158 63.6053 8.62467C64.2637 8.62467 64.9078 8.69581 65.5376 8.8381C66.1674 8.98038 66.7399 9.26496 67.2552 9.69182C67.6846 9.32187 68.1855 9.06576 68.7581 8.92347C69.3592 8.75272 69.9747 8.65312 70.6045 8.62467C71.864 8.62467 73.0234 8.95193 74.0826 9.60645C75.1417 10.261 75.6713 11.5842 75.6713 13.5763V20.2353H74.1684C73.7391 20.2353 73.3812 20.1072 73.095 19.8511C72.8373 19.5665 72.7085 19.2108 72.7085 18.7839V12.9786C72.7085 12.2957 72.4938 11.7977 72.0644 11.4846C71.6636 11.1716 71.2056 11.0151 70.6903 11.0151C70.1751 11.0151 69.7027 11.1716 69.2733 11.4846C68.8726 11.7977 68.6722 12.2957 68.6722 12.9786V13.5763V20.2353Z" fill="#2C2C2C"/>
<path d="M87.5484 8.88078V15.5398C87.5484 17.5603 87.0188 18.8836 85.9597 19.5096C84.9005 20.1357 83.7411 20.4487 82.4816 20.4487C81.2506 20.3918 80.1199 20.0503 79.0893 19.4242C78.0874 18.7982 77.5864 17.5034 77.5864 15.5398V8.88078H80.5922V16.1374C80.5922 16.8204 80.7926 17.3184 81.1934 17.6314C81.5941 17.9445 82.0522 18.101 82.5674 18.101C83.0827 18.101 83.5407 17.9445 83.9415 17.6314C84.3709 17.3184 84.5856 16.8204 84.5856 16.1374V10.3321C84.5856 9.93371 84.7144 9.59222 84.9721 9.30764C85.2583 9.02307 85.6161 8.88078 86.0455 8.88078H87.5484Z" fill="#2C2C2C"/>
<path d="M99.082 20.2353H97.5791C97.1497 20.2353 96.7919 20.1072 96.5056 19.8511C96.248 19.5665 96.1192 19.2108 96.1192 18.7839V12.9786C96.1192 12.2957 95.9045 11.7977 95.4751 11.4846C95.0743 11.1716 94.6163 11.0151 94.101 11.0151C93.5857 11.0151 93.1277 11.1716 92.7269 11.4846C92.3262 11.7977 92.1258 12.2957 92.1258 12.9786V20.2353H89.12V13.5763C89.12 11.6411 89.621 10.3463 90.6229 9.69182C91.6535 9.0373 92.7842 8.68158 94.0151 8.62467C95.2747 8.62467 96.4341 8.95193 97.4932 9.60645C98.5524 10.261 99.082 11.5842 99.082 13.5763V20.2353Z" fill="#2C2C2C"/>
<path d="M107.266 14.5153C106.866 14.7145 106.307 14.8995 105.592 15.0703C104.933 15.2125 104.604 15.2837 104.604 15.2837C104.089 15.426 103.717 15.611 103.488 15.8386C103.287 16.1516 103.187 16.4647 103.187 16.7777C103.187 17.2046 103.316 17.5461 103.573 17.8022C103.831 18.0298 104.203 18.1437 104.69 18.1437C105.491 18.1437 106.121 17.916 106.579 17.4607C107.037 17.0054 107.266 16.3793 107.266 15.5825V14.5153ZM107.953 19.7657C107.352 20.0788 106.708 20.2637 106.021 20.3206C105.363 20.406 104.776 20.4487 104.261 20.4487C103.23 20.4487 102.328 20.1784 101.555 19.6377C100.782 19.0685 100.396 18.1437 100.396 16.8631C100.396 15.6679 100.739 14.8141 101.427 14.3019C102.142 13.7897 103.044 13.4482 104.132 13.2774C104.275 13.2774 104.447 13.2632 104.647 13.2348C104.847 13.1778 105.076 13.1352 105.334 13.1067C106.594 12.936 107.223 12.566 107.223 11.9969C107.223 11.57 106.994 11.2997 106.536 11.1858C106.107 11.0435 105.706 10.9724 105.334 10.9724C104.933 10.9724 104.575 11.0293 104.261 11.1431C103.946 11.257 103.717 11.4704 103.573 11.7834H100.697C100.811 10.9013 101.212 10.1756 101.899 9.60645C102.672 8.95193 103.774 8.62467 105.205 8.62467C106.808 8.62467 108.011 8.89501 108.812 9.4357C109.642 10.0048 110.057 10.8017 110.057 11.8261V15.7106C110.057 16.8488 109.843 17.7453 109.413 18.3998C109.013 19.0258 108.526 19.4812 107.953 19.7657Z" fill="#2C2C2C"/>
</svg>
