<svg width="21" height="17" viewBox="0 0 21 17" fill="none" xmlns="http://www.w3.org/2000/svg">
<path d="M20.0518 5.44597C20.052 5.30988 19.9841 5.18275 19.871 5.10706L14.6954 1.10668C14.5632 0.995201 14.3788 0.968729 14.2207 1.03882C14.0709 1.11991 13.976 1.2752 13.9721 1.44577V3.41213C11.3051 3.47998 10.017 4.33882 9.81339 4.47436C6.40077 6.68901 7.14664 9.87571 7.14664 9.89861L7.25961 10.3732C7.31125 10.5425 7.44902 10.6717 7.62127 10.7123H7.71168C7.85317 10.709 7.98572 10.6426 8.07333 10.5315L8.36713 10.1247V10.1246C9.67728 8.36084 11.7769 7.36179 13.9723 7.45762V9.49184C13.9654 9.66521 14.0634 9.82572 14.2209 9.8986C14.3766 9.96534 14.5554 9.94838 14.6956 9.85349L19.8712 5.80782C19.9823 5.72039 20.0487 5.58766 20.052 5.44617L20.0518 5.44597ZM14.8762 8.56494V7.05067C14.8773 6.81765 14.7012 6.62191 14.4694 6.5986C12.0083 6.32363 9.573 7.29937 7.98285 9.19786C7.96029 8.33903 8.20879 6.59879 10.3334 5.22001H10.356C10.356 5.22001 11.6216 4.33861 14.3338 4.33861H14.4242H14.4241C14.5439 4.33861 14.659 4.29088 14.7438 4.20625C14.8284 4.12143 14.8761 4.00641 14.8761 3.88654V2.37227L18.8538 5.44596L14.8762 8.56494Z" fill="#272727" stroke="#272727" stroke-width="0.3"/>
<path d="M3.05551 4.67694H8.14045V3.77301H3.05551C2.51599 3.77301 1.99867 3.98721 1.61727 4.36879C1.23566 4.75021 1.02148 5.26752 1.02148 5.80704V13.9659C1.02148 14.5054 1.23568 15.0227 1.61727 15.4041C1.99868 15.7855 2.51599 15.9999 3.05551 15.9999H14.4462C14.9838 15.9939 15.4978 15.7779 15.8781 15.3976C16.2582 15.0174 16.4744 14.5035 16.4804 13.9659V10.3948H15.5764L15.5763 13.9659C15.5705 14.2638 15.4495 14.5478 15.2388 14.7585C15.0282 14.9691 14.7441 15.0899 14.4462 15.0957H3.05555C2.75579 15.0957 2.46831 14.9768 2.25656 14.7648C2.0446 14.5529 1.92548 14.2654 1.92548 13.9658V5.80703C1.92548 5.50726 2.0446 5.21998 2.25656 5.00804C2.46833 4.79608 2.7558 4.67696 3.05555 4.67696L3.05551 4.67694Z" fill="#272727" stroke="#272727" stroke-width="0.3"/>
</svg>
