<svg width="15" height="15" viewBox="0 0 15 15" fill="none" xmlns="http://www.w3.org/2000/svg">
<path d="M14.1484 13.6604L10.2378 9.74969C11.1775 8.62149 11.6461 7.17442 11.5462 5.70951C11.4462 4.2446 10.7852 2.87463 9.7009 1.8846C8.61655 0.894566 7.19226 0.360698 5.72431 0.394052C4.25637 0.427406 2.8578 1.02542 1.81954 2.06368C0.781275 3.10194 0.183266 4.50051 0.149911 5.96845C0.116557 7.4364 0.650425 8.86069 1.64046 9.94504C2.63049 11.0294 4.00046 11.6903 5.46537 11.7903C6.93028 11.8903 8.37735 11.4217 9.50555 10.4819L13.4162 14.3926L14.1484 13.6604ZM1.20262 6.10725C1.20262 5.1855 1.47595 4.28444 1.98806 3.51802C2.50016 2.75161 3.22803 2.15426 4.07962 1.80152C4.93121 1.44878 5.86828 1.35649 6.77233 1.53631C7.67638 1.71614 8.5068 2.16001 9.15858 2.81179C9.81036 3.46357 10.2542 4.29399 10.4341 5.19804C10.6139 6.10209 10.5216 7.03915 10.1688 7.89075C9.81611 8.74234 9.21876 9.47021 8.45235 9.98231C7.68593 10.4944 6.78487 10.7677 5.86311 10.7677C4.62749 10.7664 3.44288 10.2749 2.56916 9.40121C1.69545 8.52749 1.20399 7.34287 1.20262 6.10725Z" fill="#6A6A6A"/>
</svg>
