<svg width="24" height="24" viewBox="0 0 24 24" fill="none" xmlns="http://www.w3.org/2000/svg">
<path fill-rule="evenodd" clip-rule="evenodd" d="M8.79948 0C7.47279 0.000978593 6.39909 1.07547 6.40007 2.39951C6.39909 3.72355 7.47377 4.79804 8.80046 4.79902H11.2008V2.40049C11.2018 1.07645 10.1271 0.00195719 8.79948 0C8.80046 0 8.80046 0 8.79948 0V0ZM8.79948 6.4H2.40039C1.07371 6.40098 -0.000977872 7.47547 2.67973e-06 8.79951C-0.00195842 10.1235 1.07273 11.198 2.39941 11.2H8.79948C10.1262 11.199 11.2008 10.1245 11.1999 8.80049C11.2008 7.47547 10.1262 6.40098 8.79948 6.4Z" fill="#36C5F0"/>
<path fill-rule="evenodd" clip-rule="evenodd" d="M23.9994 8.79951C24.0004 7.47547 22.9257 6.40098 21.599 6.4C20.2724 6.40098 19.1977 7.47547 19.1986 8.79951V11.2H21.599C22.9257 11.199 24.0004 10.1245 23.9994 8.79951ZM17.5994 8.79951V2.39951C17.6003 1.07645 16.5266 0.00195719 15.2 0C13.8733 0.000978593 12.7986 1.07547 12.7996 2.39951V8.79951C12.7976 10.1235 13.8723 11.198 15.199 11.2C16.5257 11.199 17.6003 10.1245 17.5994 8.79951Z" fill="#2EB67D"/>
<path fill-rule="evenodd" clip-rule="evenodd" d="M15.2 23.9997C16.5266 23.9987 17.6013 22.9242 17.6003 21.6001C17.6013 20.2761 16.5266 19.2016 15.2 19.2006H12.7996V21.6001C12.7986 22.9232 13.8733 23.9977 15.2 23.9997ZM15.2 17.5987H21.6C22.9267 17.5977 24.0014 16.5232 24.0004 15.1992C24.0024 13.8751 22.9277 12.8006 21.601 12.7987H15.2009C13.8742 12.7997 12.7996 13.8741 12.8005 15.1982C12.7996 16.5232 13.8733 17.5977 15.2 17.5987Z" fill="#ECB22E"/>
<path fill-rule="evenodd" clip-rule="evenodd" d="M6.70465e-07 15.1995C-0.000979882 16.5236 1.07371 17.5981 2.40039 17.599C3.72708 17.5981 4.80176 16.5236 4.80078 15.1995V12.8H2.40039C1.07371 12.801 -0.000979882 13.8755 6.70465e-07 15.1995ZM6.40006 15.1995V21.5995C6.3981 22.9236 7.47279 23.9981 8.79948 24C10.1262 23.999 11.2008 22.9245 11.1999 21.6005V15.2015C11.2018 13.8774 10.1271 12.803 8.80046 12.801C7.47279 12.801 6.39908 13.8755 6.40006 15.1995C6.40006 15.1995 6.40006 15.2005 6.40006 15.1995Z" fill="#E01E5A"/>
</svg>
