<svg width="28" height="27" viewBox="0 0 28 27" fill="none" xmlns="http://www.w3.org/2000/svg">
<path d="M14 27C21.4558 27 27.5 20.9558 27.5 13.5C27.5 6.04417 21.4558 0 14 0C6.54417 0 0.5 6.04417 0.5 13.5C0.5 20.9558 6.54417 27 14 27Z" fill="#34AADF"/>
<path d="M6.11867 13.3824C6.11867 13.3824 12.8687 10.6122 15.2097 9.63676C16.1071 9.24661 19.1504 7.99802 19.1504 7.99802C19.1504 7.99802 20.5551 7.45181 20.438 8.77838C20.399 9.32464 20.0869 11.2365 19.7747 13.3044C19.3065 16.2307 18.7993 19.4301 18.7993 19.4301C18.7993 19.4301 18.7212 20.3275 18.058 20.4836C17.3947 20.6396 16.3022 19.9374 16.1071 19.7813C15.951 19.6642 13.1808 17.9084 12.1663 17.05C11.8932 16.816 11.5811 16.3478 12.2053 15.8015C13.61 14.5139 15.2877 12.9142 16.3022 11.8998C16.7704 11.4316 17.2386 10.3391 15.2877 11.6656C12.5175 13.5775 9.78629 15.3723 9.78629 15.3723C9.78629 15.3723 9.162 15.7625 7.9915 15.4113C6.82094 15.0602 5.45533 14.592 5.45533 14.592C5.45533 14.592 4.51897 14.0067 6.11867 13.3824Z" fill="white"/>
</svg>
