<svg width="28" height="26" viewBox="0 0 28 26" fill="none" xmlns="http://www.w3.org/2000/svg">
<path d="M13.1228 10.8978C11.9594 12.8507 10.8447 14.7419 9.70682 16.6188C9.41458 17.1007 9.26995 17.4932 9.50341 18.1057C10.148 19.7978 9.2387 21.4445 7.52981 21.8914C5.91818 22.3131 4.34801 21.2555 4.02825 19.5326C3.7449 18.0077 4.93006 16.5128 6.61395 16.2744C6.75497 16.2543 6.89906 16.252 7.13614 16.2343L9.6975 11.9457C8.08653 10.3462 7.12769 8.4766 7.33988 6.15974C7.48989 4.52206 8.13489 3.10675 9.3137 1.94679C11.5715 -0.274597 15.0161 -0.63428 17.6746 1.07074C20.2278 2.70853 21.3972 5.89871 20.4004 8.62912C19.6488 8.42569 18.892 8.2205 18.06 7.99516C18.373 6.47705 18.1415 5.11386 17.1161 3.94602C16.4386 3.17497 15.5693 2.77083 14.5808 2.62192C12.5991 2.32301 10.6535 3.59422 10.0761 5.5364C9.42083 7.74048 10.4127 9.54109 13.1228 10.8979V10.8978Z" fill="#C73A63"/>
<path d="M16.4458 8.58794C17.2655 10.0318 18.0978 11.4975 18.9226 12.9497C23.0918 11.6617 26.2352 13.9662 27.3629 16.4334C28.725 19.4137 27.7938 22.9435 25.1188 24.7822C22.373 26.6697 18.9005 26.3472 16.4677 23.9226C17.0877 23.4044 17.7108 22.8838 18.3765 22.3277C20.7793 23.8816 22.8809 23.8085 24.4411 21.9684C25.7715 20.3986 25.7427 18.058 24.3736 16.5211C22.7937 14.7477 20.6774 14.6936 18.1194 16.396C17.0582 14.5162 15.9787 12.6514 14.9511 10.7581C14.6045 10.12 14.2221 9.74965 13.4411 9.61465C12.1369 9.38887 11.295 8.27063 11.2444 7.01781C11.1948 5.77879 11.9259 4.65879 13.0685 4.22246C14.2004 3.79008 15.5286 4.13903 16.29 5.09994C16.9122 5.885 17.1099 6.76861 16.7824 7.73685C16.6914 8.00686 16.5735 8.26811 16.4458 8.58805V8.58794Z" fill="#4B4B4B"/>
<path d="M18.4051 20.3915H13.3861C12.905 22.3672 11.8659 23.9623 10.0756 24.9766C8.6837 25.765 7.1836 26.0323 5.58699 25.7748C2.64732 25.3015 0.243645 22.6591 0.0320075 19.6838C-0.207483 16.3132 2.11274 13.3171 5.20539 12.6442C5.41889 13.4184 5.6347 14.2001 5.8482 14.9724C3.01072 16.4179 2.02864 18.2392 2.82277 20.5167C3.52183 22.5208 5.5076 23.6194 7.66378 23.1945C9.86569 22.7607 10.9759 20.9335 10.8403 18.0011C12.9277 18.0011 15.0169 17.9795 17.1046 18.0117C17.9198 18.0245 18.5491 17.9401 19.1631 17.2225C20.1742 16.0417 22.0352 16.1483 23.1241 17.2634C24.2369 18.4031 24.1836 20.2369 23.006 21.3286C21.8698 22.3819 20.0748 22.3256 19.0118 21.1906C18.7934 20.9567 18.6212 20.679 18.4051 20.3915Z" fill="#4A4A4A"/>
</svg>
