<svg width="44" height="29" viewBox="0 0 44 29" fill="none" xmlns="http://www.w3.org/2000/svg">
<path d="M14.4639 2.41667L17.4487 5.47347L9.93263 12.9896L6.94775 10.0047L14.4639 2.41667Z" fill="#F0B90B" stroke="#F0B90B"/>
<path d="M18.9951 6.94792L21.98 10.0047L9.93263 22.0521L6.94775 19.0672L18.9951 6.94792Z" fill="#F0B90B" stroke="#F0B90B"/>
<path d="M5.40138 11.4792L8.38625 14.536L5.40138 17.5208L2.4165 14.536L5.40138 11.4792Z" fill="#F0B90B" stroke="#F0B90B"/>
<path d="M23.5264 11.4792L26.5112 14.536L14.4639 26.5833L11.479 23.5985L23.5264 11.4792Z" fill="#F0B90B" stroke="#F0B90B"/>
<path d="M41.0832 14.5C41.0832 21.1736 35.6735 26.5833 28.9998 26.5833C22.3265 26.5833 16.9165 21.1736 16.9165 14.5C16.9165 7.8265 22.3265 2.41667 28.9998 2.41667C35.6735 2.41667 41.0832 7.8265 41.0832 14.5Z" fill="#1BA27A"/>
<path d="M34.6712 8.50981H23.2295V11.2721H27.5692V15.3321H30.3315V11.2721H34.6712V8.50981Z" fill="#F3F3F3"/>
<path d="M28.9763 15.7645C25.3863 15.7645 22.4758 15.1964 22.4758 14.4954C22.4758 13.7946 25.3862 13.2263 28.9763 13.2263C32.5663 13.2263 35.4767 13.7946 35.4767 14.4954C35.4767 15.1964 32.5663 15.7645 28.9763 15.7645ZM36.2752 14.707C36.2752 13.8032 33.0074 13.0705 28.9763 13.0705C24.9453 13.0705 21.6772 13.8032 21.6772 14.707C21.6772 15.5029 24.2112 16.166 27.5691 16.313V22.1413H30.3311V16.3153C33.7148 16.1729 36.2752 15.507 36.2752 14.707Z" fill="#F3F3F3"/>
</svg>
