<svg width="44" height="29" viewBox="0 0 44 29" fill="none" xmlns="http://www.w3.org/2000/svg">
<path d="M14.4998 2.41667C21.1739 2.41667 26.5832 7.82703 26.5832 14.5C26.5832 21.1741 21.1739 26.5833 14.4998 26.5833C7.82687 26.5833 2.4165 21.1735 2.4165 14.5C2.4165 7.82703 7.82687 2.41667 14.4998 2.41667Z" fill="#F5AC37"/>
<path d="M14.9448 15.3532H19.5362C19.6341 15.3532 19.6803 15.3532 19.6874 15.2249C19.7249 14.7578 19.7249 14.288 19.6874 13.8204C19.6874 13.7296 19.6423 13.6921 19.5438 13.6921H10.406C10.2929 13.6921 10.2625 13.7296 10.2625 13.8356V15.1798C10.2625 15.3532 10.2625 15.3532 10.4435 15.3532H14.9448ZM19.1746 12.1212C19.1877 12.0869 19.1877 12.0494 19.1746 12.0157C19.098 11.8487 19.0071 11.6894 18.9017 11.5399C18.7429 11.2843 18.5558 11.0489 18.3427 10.8374C18.2421 10.7096 18.1257 10.5948 17.9952 10.4975C17.3416 9.94124 16.5646 9.54756 15.7294 9.34964C15.308 9.25502 14.8773 9.20989 14.4456 9.2137H10.3903C10.2772 9.2137 10.2619 9.25883 10.2619 9.35725V12.038C10.2619 12.1511 10.2619 12.1815 10.4055 12.1815H19.1203C19.1203 12.1815 19.1958 12.1663 19.2111 12.1212H19.1741H19.1746ZM19.1746 16.9242C19.0463 16.91 18.9169 16.91 18.7886 16.9242H10.4136C10.3005 16.9242 10.2625 16.9242 10.2625 17.0753V19.6962C10.2625 19.8169 10.2625 19.8474 10.4136 19.8474H14.2803C14.4652 19.8615 14.65 19.8485 14.8311 19.8099C15.3923 19.7696 15.9442 19.6478 16.4705 19.4472C16.6619 19.3808 16.8468 19.2944 17.0214 19.1905H17.0741C17.9805 18.7191 18.7168 17.9785 19.1812 17.0693C19.1812 17.0693 19.2339 16.9551 19.1746 16.9252V16.9242ZM8.74485 21.2062V21.1611V19.4015V18.805V17.0302C8.74485 16.9318 8.74485 16.9171 8.62414 16.9171H6.98526C6.89445 16.9171 6.85693 16.9171 6.85693 16.7964V15.3614H8.60891C8.70679 15.3614 8.74485 15.3614 8.74485 15.2331V13.8133C8.74485 13.7225 8.74485 13.7002 8.62414 13.7002H6.98526C6.89445 13.7002 6.85693 13.7002 6.85693 13.5795V12.2506C6.85693 12.1674 6.85693 12.1451 6.97765 12.1451H8.6013C8.7144 12.1451 8.74485 12.1451 8.74485 12.0015V7.93098C8.74485 7.81027 8.74485 7.77982 8.89602 7.77982H14.5598C14.9709 7.79613 15.3792 7.84126 15.7832 7.91575C16.6157 8.06964 17.4156 8.36707 18.1469 8.79174C18.632 9.07722 19.0784 9.42196 19.4759 9.8189C19.7749 10.1294 20.0446 10.4654 20.2839 10.8232C20.5215 11.1859 20.7189 11.5736 20.8739 11.9787C20.8929 12.0842 20.994 12.1554 21.0995 12.1375H22.4513C22.6248 12.1375 22.6248 12.1375 22.6324 12.3039V13.5425C22.6324 13.6633 22.5872 13.6937 22.466 13.6937H21.4236C21.3181 13.6937 21.2877 13.6937 21.2953 13.8296C21.3366 14.2897 21.3366 14.7513 21.2953 15.2113C21.2953 15.3396 21.2953 15.3549 21.4394 15.3549H22.6318C22.6846 15.4228 22.6318 15.4908 22.6318 15.5593C22.6394 15.6469 22.6394 15.7355 22.6318 15.823V16.7371C22.6318 16.8654 22.5943 16.9035 22.4807 16.9035H21.0533C20.9538 16.8845 20.857 16.9481 20.8342 17.047C20.4943 17.9306 19.9506 18.7229 19.248 19.358C18.9914 19.5891 18.7217 19.8066 18.44 20.0072C18.1377 20.1812 17.8435 20.3623 17.5336 20.5059C16.9632 20.7625 16.365 20.9517 15.7511 21.0719C15.1682 21.1763 14.5772 21.2236 13.9839 21.2155H8.74268V21.2079L8.74485 21.2062Z" fill="#FEFEFD"/>
<path d="M29.1732 2.4527V2.46471C29.1852 2.52477 29.1852 2.59684 29.1852 2.6689V11.329C29.1732 11.3771 29.1371 11.3891 29.1011 11.4131C28.8489 11.5332 28.6086 11.6413 28.3564 11.7494C28.0081 11.9056 27.6477 12.0737 27.2994 12.2299L26.0382 12.8064C25.6899 12.9626 25.3416 13.1187 25.0052 13.2749C24.5969 13.467 24.1765 13.6472 23.7681 13.8394C23.4198 13.9955 23.0714 14.1637 22.7111 14.3198C22.4228 14.452 22.1346 14.5721 21.8583 14.7042C21.8343 14.7162 21.8103 14.7282 21.7862 14.7282C21.7742 14.7282 21.7742 14.7282 21.7622 14.7162L22.0865 14.1757C22.7111 13.1427 23.3237 12.1218 23.9483 11.0888C24.6089 9.98377 25.2815 8.87873 25.9421 7.77369C26.5547 6.75274 27.1793 5.73178 27.7919 4.71082C28.2363 3.96612 28.6927 3.22142 29.1371 2.47672C29.1491 2.4527 29.1611 2.44069 29.1611 2.41667H29.1732C29.1611 2.42868 29.1732 2.44069 29.1732 2.4527Z" fill="#8A92B2"/>
<path d="M36.5479 14.7162L36.5599 14.7282L34.7942 15.7732L29.245 19.0523C29.221 19.0643 29.197 19.0763 29.185 19.0883C29.1489 19.0883 29.1489 19.0523 29.1489 19.0403V18.9322V11.5092C29.1489 11.4732 29.1489 11.4251 29.1609 11.3891C29.1729 11.341 29.209 11.3531 29.245 11.3651C29.4012 11.4371 29.5693 11.5092 29.7255 11.5813C30.1939 11.7975 30.6623 12.0137 31.1308 12.2179C31.5392 12.398 31.9355 12.5902 32.3439 12.7704C32.7523 12.9506 33.1607 13.1427 33.5691 13.3229C33.9174 13.479 34.2777 13.6472 34.6261 13.8033C34.9744 13.9595 35.3347 14.1277 35.6831 14.2838C35.9593 14.4039 36.2356 14.536 36.5118 14.6561C36.5118 14.6922 36.5238 14.7042 36.5479 14.7162Z" fill="#454A75"/>
<path d="M29.1727 26.5473C29.1727 26.5593 29.1607 26.5713 29.1607 26.5833H29.1486C29.1486 26.5593 29.1246 26.5473 29.1126 26.5233C28.3679 25.4783 27.6232 24.4213 26.8785 23.3763C26.1218 22.3073 25.3531 21.2263 24.5964 20.1573C23.8637 19.1243 23.119 18.0794 22.3863 17.0464C22.1941 16.7701 22.0019 16.5059 21.8098 16.2296C21.7978 16.2056 21.7857 16.1936 21.7617 16.1576C21.7978 16.1576 21.8218 16.1816 21.8338 16.1936C22.8788 16.8062 23.9117 17.4187 24.9567 18.0313C26.1578 18.74 27.347 19.4486 28.5481 20.1573L29.1607 20.5176C29.1847 20.5417 29.1847 20.5657 29.1847 20.5897V26.3791C29.1847 26.4392 29.1847 26.4993 29.1727 26.5473Z" fill="#8A92B2"/>
<path d="M21.75 14.7402V14.7282C22.1344 14.5601 22.5067 14.3799 22.8911 14.2117C23.3835 13.9835 23.876 13.7673 24.3685 13.5391C24.7408 13.3709 25.1252 13.1908 25.4975 13.0226C26.05 12.7704 26.5905 12.5302 27.1431 12.2779C27.5154 12.1098 27.8878 11.9416 28.2721 11.7614C28.5364 11.6413 28.8126 11.5212 29.0769 11.4011C29.1009 11.3891 29.1369 11.3771 29.1489 11.3531C29.161 11.3531 29.161 11.3651 29.1489 11.3771V19.0042C29.1489 19.0403 29.1369 19.0763 29.161 19.1003C29.1369 19.1363 29.1129 19.1003 29.1009 19.0883C28.9928 19.0282 28.8847 18.9682 28.7766 18.8961C26.4584 17.5268 24.1282 16.1455 21.8101 14.7763C21.798 14.7642 21.774 14.7522 21.75 14.7402Z" fill="#62688F"/>
<path d="M36.524 16.1576H36.536C36.536 16.1816 36.512 16.2056 36.5 16.2296C34.2899 19.3405 32.0799 22.4635 29.8698 25.5744C29.6416 25.8987 29.4014 26.223 29.1731 26.5473C29.1611 26.5353 29.1611 26.5233 29.1611 26.5113V26.4392V20.6137V20.5056C29.6656 20.2054 30.1581 19.9171 30.6625 19.6168C32.6084 18.4637 34.5542 17.3227 36.488 16.1696C36.5 16.1816 36.512 16.1696 36.524 16.1576Z" fill="#62688F"/>
<path d="M29.1612 11.3771V11.353V11.281V2.5608C29.1612 2.52477 29.1492 2.50074 29.1732 2.46471C31.6115 6.51251 34.0498 10.5483 36.4761 14.5961C36.5001 14.6321 36.5361 14.6802 36.5482 14.7282C36.38 14.6682 36.2239 14.5841 36.0677 14.512C35.8755 14.4279 35.6713 14.3318 35.4792 14.2478C35.359 14.1877 35.2269 14.1397 35.1068 14.0796C34.9026 13.9835 34.6984 13.8994 34.4942 13.8033C34.3741 13.7553 34.254 13.6952 34.1339 13.6352L33.3412 13.2748C33.209 13.2148 33.0769 13.1547 32.9328 13.0947L32.3562 12.8424C32.2361 12.7944 32.116 12.7343 31.9959 12.6743L31.2031 12.3139C31.071 12.2539 30.9389 12.1938 30.7948 12.1338L30.2182 11.8815C30.0861 11.8215 29.966 11.7614 29.8339 11.7014C29.6056 11.5933 29.3774 11.4852 29.1372 11.3891C29.1732 11.3771 29.1612 11.3771 29.1612 11.3771Z" fill="#62688F"/>
</svg>
