<svg width="44" height="29" viewBox="0 0 44 29" fill="none" xmlns="http://www.w3.org/2000/svg">
<path d="M14.4997 2.41666C21.1737 2.41666 26.583 7.82698 26.583 14.4999C26.583 21.1739 21.1737 26.5831 14.4997 26.5831C7.82683 26.5831 2.4165 21.1734 2.4165 14.4999C2.4165 7.82698 7.82683 2.41666 14.4997 2.41666Z" fill="#F5AC37"/>
<path d="M14.9447 15.3531H19.5361C19.634 15.3531 19.6802 15.3531 19.6873 15.2248C19.7248 14.7577 19.7248 14.2879 19.6873 13.8203C19.6873 13.7295 19.6422 13.692 19.5437 13.692H10.406C10.2929 13.692 10.2624 13.7295 10.2624 13.8355V15.1797C10.2624 15.3531 10.2624 15.3531 10.4435 15.3531H14.9447ZM19.1745 12.1211C19.1876 12.0868 19.1876 12.0493 19.1745 12.0156C19.0979 11.8486 19.0071 11.6893 18.9016 11.5398C18.7428 11.2842 18.5557 11.0488 18.3426 10.8373C18.242 10.7095 18.1256 10.5948 17.9951 10.4974C17.3415 9.94117 16.5645 9.54749 15.7293 9.34956C15.3079 9.25495 14.8773 9.20982 14.4455 9.21363H10.3902C10.2771 9.21363 10.2619 9.25876 10.2619 9.35718V12.0379C10.2619 12.151 10.2619 12.1814 10.4055 12.1814H19.1202C19.1202 12.1814 19.1957 12.1662 19.211 12.1211H19.174H19.1745ZM19.1745 16.924C19.0462 16.9099 18.9168 16.9099 18.7885 16.924H10.4136C10.3005 16.924 10.2624 16.924 10.2624 17.0752V19.6961C10.2624 19.8168 10.2624 19.8472 10.4136 19.8472H14.2802C14.4651 19.8614 14.65 19.8483 14.831 19.8097C15.3922 19.7695 15.9441 19.6477 16.4705 19.447C16.6619 19.3807 16.8467 19.2942 17.0213 19.1904H17.074C17.9805 18.7189 18.7167 17.9784 19.1811 17.0692C19.1811 17.0692 19.2338 16.955 19.1745 16.9251V16.924ZM8.74484 21.2061V21.1609V19.4013V18.8049V17.03C8.74484 16.9316 8.74484 16.917 8.62412 16.917H6.98526C6.89445 16.917 6.85693 16.917 6.85693 16.7962V15.3613H8.6089C8.70678 15.3613 8.74484 15.3613 8.74484 15.233V13.8132C8.74484 13.7224 8.74484 13.7001 8.62412 13.7001H6.98526C6.89445 13.7001 6.85693 13.7001 6.85693 13.5794V12.2505C6.85693 12.1673 6.85693 12.145 6.97765 12.145H8.60129C8.71439 12.145 8.74484 12.145 8.74484 12.0014V7.93092C8.74484 7.81021 8.74484 7.77975 8.896 7.77975H14.5597C14.9708 7.79607 15.3791 7.8412 15.7832 7.91569C16.6156 8.06957 17.4155 8.36701 18.1468 8.79168C18.6319 9.07714 19.0783 9.42188 19.4758 9.81882C19.7748 10.1293 20.0445 10.4653 20.2838 10.8231C20.5214 11.1858 20.7188 11.5735 20.8738 11.9786C20.8928 12.0841 20.9939 12.1553 21.0994 12.1374H22.4512C22.6246 12.1374 22.6246 12.1374 22.6322 12.3038V13.5424C22.6322 13.6631 22.5871 13.6936 22.4659 13.6936H21.4235C21.318 13.6936 21.2875 13.6936 21.2952 13.8295C21.3365 14.2895 21.3365 14.7512 21.2952 15.2112C21.2952 15.3395 21.2952 15.3548 21.4393 15.3548H22.6317C22.6844 15.4227 22.6317 15.4907 22.6317 15.5592C22.6393 15.6467 22.6393 15.7354 22.6317 15.8229V16.737C22.6317 16.8653 22.5942 16.9034 22.4805 16.9034H21.0532C20.9537 16.8843 20.8569 16.9479 20.8341 17.0469C20.4942 17.9305 19.9505 18.7227 19.2479 19.3578C18.9913 19.5889 18.7216 19.8064 18.4399 20.0071C18.1376 20.1811 17.8434 20.3622 17.5335 20.5057C16.9631 20.7624 16.365 20.9516 15.7511 21.0718C15.1682 21.1762 14.5771 21.2235 13.9839 21.2153H8.74266V21.2077L8.74484 21.2061Z" fill="#FEFEFD"/>
<path fill-rule="evenodd" clip-rule="evenodd" d="M28.9998 2.41672C35.6733 2.41672 41.083 7.82645 41.083 14.5C41.083 21.173 35.6733 26.5832 28.9998 26.5832C22.3262 26.5832 16.9165 21.173 16.9165 14.5C16.9165 7.82645 22.3262 2.41672 28.9998 2.41672Z" fill="#2775CA"/>
<path fill-rule="evenodd" clip-rule="evenodd" d="M26.7348 22.901C26.7348 23.1853 26.5122 23.3468 26.2373 23.2609C22.5839 22.0955 19.9351 18.6697 19.9351 14.6276C19.9351 10.5856 22.5839 7.15972 26.2373 5.99424C26.5122 5.90897 26.7348 6.0699 26.7348 6.35413V7.05578C26.7348 7.24499 26.5881 7.46771 26.4078 7.52936C23.5173 8.59076 21.4467 11.3676 21.4467 14.6228C21.4467 17.878 23.5173 20.6553 26.4078 21.7162C26.5881 21.7827 26.7348 22.0004 26.7348 22.1903V22.901Z" fill="#F3F3F3"/>
<path fill-rule="evenodd" clip-rule="evenodd" d="M29.7533 20.29C29.7533 20.4987 29.5827 20.6693 29.3743 20.6693H28.6207C28.4123 20.6693 28.2418 20.4987 28.2418 20.29V19.0961C26.5927 18.8735 25.7873 17.9493 25.5693 16.6937C25.5313 16.4802 25.7018 16.2861 25.9198 16.2861H26.7823C26.9623 16.2861 27.114 16.4142 27.1519 16.5939C27.3131 17.3427 27.7443 17.9161 29.0662 17.9161C30.0423 17.9161 30.7343 17.3711 30.7343 16.5564C30.7343 15.7411 30.3267 15.4332 28.8956 15.1961C26.7823 14.9119 25.7825 14.272 25.7825 12.6136C25.7825 11.3343 26.7493 10.3393 28.2466 10.1259V8.95551C28.2466 8.74694 28.4172 8.57626 28.6255 8.57626H29.3791C29.5875 8.57626 29.7581 8.74694 29.7581 8.95551V10.1592C30.9759 10.3775 31.7482 11.0688 31.9995 12.2155C32.0467 12.4338 31.8762 12.6372 31.6536 12.6372H30.8574C30.6868 12.6372 30.5447 12.5234 30.4927 12.3576C30.2794 11.6282 29.7581 11.3156 28.8529 11.3156C27.8532 11.3156 27.3366 11.7988 27.3366 12.4763C27.3366 13.1918 27.6306 13.5517 29.166 13.7748C31.2411 14.059 32.3123 14.6513 32.3123 16.4191C32.3123 17.76 31.3171 18.8451 29.7581 19.0961V20.29H29.7533Z" fill="#F3F3F3"/>
<path fill-rule="evenodd" clip-rule="evenodd" d="M31.7621 23.261C31.4875 23.3468 31.2646 23.1853 31.2646 22.9011V22.2C31.2646 21.9914 31.3926 21.7972 31.5916 21.7258C34.4821 20.6644 36.5527 17.8876 36.5527 14.6324C36.5527 11.3772 34.4821 8.60039 31.5916 7.53899C31.4116 7.47253 31.2646 7.25476 31.2646 7.06486V6.36376C31.2646 6.07952 31.4875 5.91379 31.7621 6.00332C35.4155 7.16949 38.0644 10.5952 38.0644 14.6372C38.0598 18.6696 35.4155 22.0907 31.7621 23.261Z" fill="#F3F3F3"/>
</svg>
