<svg width="44" height="29" viewBox="0 0 44 29" fill="none" xmlns="http://www.w3.org/2000/svg">
<path d="M14.6732 2.45269V2.4647C14.6852 2.52476 14.6852 2.59683 14.6852 2.66889V11.329C14.6732 11.3771 14.6371 11.3891 14.6011 11.4131C14.3489 11.5332 14.1086 11.6413 13.8564 11.7494C13.5081 11.9056 13.1477 12.0737 12.7994 12.2299L11.5382 12.8064C11.1899 12.9625 10.8416 13.1187 10.5052 13.2748C10.0969 13.467 9.67647 13.6472 9.26809 13.8394C8.91976 13.9955 8.57143 14.1637 8.2111 14.3198C7.92283 14.4519 7.63456 14.5721 7.3583 14.7042C7.33427 14.7162 7.31025 14.7282 7.28623 14.7282C7.27422 14.7282 7.27422 14.7282 7.26221 14.7162L7.58651 14.1757C8.2111 13.1427 8.82367 12.1218 9.44826 11.0888C10.1089 9.98375 10.7815 8.87872 11.4421 7.77368C12.0547 6.75272 12.6793 5.73177 13.2919 4.71081C13.7363 3.96611 14.1927 3.22141 14.6371 2.47671C14.6491 2.45269 14.6611 2.44068 14.6611 2.41666H14.6732C14.6611 2.42867 14.6732 2.44068 14.6732 2.45269Z" fill="#8A92B2"/>
<path d="M22.0479 14.7162L22.0599 14.7282L20.2942 15.7732L14.745 19.0523C14.721 19.0643 14.697 19.0763 14.685 19.0883C14.6489 19.0883 14.6489 19.0523 14.6489 19.0402V18.9321V11.5092C14.6489 11.4732 14.6489 11.4251 14.6609 11.3891C14.6729 11.341 14.709 11.353 14.745 11.3651C14.9012 11.4371 15.0693 11.5092 15.2255 11.5813C15.6939 11.7975 16.1623 12.0137 16.6308 12.2179C17.0392 12.398 17.4355 12.5902 17.8439 12.7704C18.2523 12.9505 18.6607 13.1427 19.0691 13.3229C19.4174 13.479 19.7777 13.6472 20.1261 13.8033C20.4744 13.9595 20.8347 14.1276 21.1831 14.2838C21.4593 14.4039 21.7356 14.536 22.0118 14.6561C22.0118 14.6922 22.0238 14.7042 22.0479 14.7162Z" fill="#454A75"/>
<path d="M14.6727 26.5473C14.6727 26.5593 14.6607 26.5713 14.6607 26.5833H14.6486C14.6486 26.5593 14.6246 26.5473 14.6126 26.5233C13.8679 25.4783 13.1232 24.4213 12.3785 23.3763C11.6218 22.3073 10.8531 21.2263 10.0964 20.1573C9.36369 19.1243 8.61899 18.0793 7.8863 17.0464C7.69412 16.7701 7.50194 16.5059 7.30976 16.2296C7.29775 16.2056 7.28574 16.1936 7.26172 16.1575C7.29775 16.1575 7.32178 16.1816 7.33379 16.1936C8.37877 16.8061 9.41174 17.4187 10.4567 18.0313C11.6578 18.74 12.847 19.4486 14.0481 20.1573L14.6607 20.5176C14.6847 20.5416 14.6847 20.5657 14.6847 20.5897V26.3791C14.6847 26.4392 14.6847 26.4992 14.6727 26.5473Z" fill="#8A92B2"/>
<path d="M7.25 14.7402V14.7282C7.63436 14.56 8.00671 14.3799 8.39107 14.2117C8.88353 13.9835 9.37599 13.7673 9.86846 13.5391C10.2408 13.3709 10.6252 13.1908 10.9975 13.0226C11.55 12.7704 12.0905 12.5301 12.6431 12.2779C13.0154 12.1097 13.3878 11.9416 13.7721 11.7614C14.0364 11.6413 14.3126 11.5212 14.5769 11.4011C14.6009 11.3891 14.6369 11.377 14.6489 11.353C14.661 11.353 14.661 11.365 14.6489 11.377V19.0042C14.6489 19.0402 14.6369 19.0763 14.661 19.1003C14.6369 19.1363 14.6129 19.1003 14.6009 19.0883C14.4928 19.0282 14.3847 18.9682 14.2766 18.8961C11.9584 17.5268 9.62823 16.1455 7.31006 14.7762C7.29805 14.7642 7.27402 14.7522 7.25 14.7402Z" fill="#62688F"/>
<path d="M22.024 16.1575H22.036C22.036 16.1816 22.012 16.2056 22 16.2296C19.7899 19.3405 17.5799 22.4634 15.3698 25.5744C15.1416 25.8987 14.9014 26.223 14.6731 26.5473C14.6611 26.5353 14.6611 26.5233 14.6611 26.5112V26.4392V20.6137V20.5056C15.1656 20.2053 15.6581 19.9171 16.1625 19.6168C18.1084 18.4637 20.0542 17.3226 21.988 16.1695C22 16.1816 22.012 16.1695 22.024 16.1575Z" fill="#62688F"/>
<path d="M14.6612 11.377V11.353V11.281V2.56078C14.6612 2.52475 14.6492 2.50072 14.6732 2.46469C17.1115 6.51249 19.5498 10.5483 21.9761 14.5961C22.0001 14.6321 22.0361 14.6801 22.0482 14.7282C21.88 14.6681 21.7239 14.5841 21.5677 14.512C21.3755 14.4279 21.1713 14.3318 20.9792 14.2477C20.859 14.1877 20.7269 14.1396 20.6068 14.0796C20.4026 13.9835 20.1984 13.8994 19.9942 13.8033C19.8741 13.7553 19.754 13.6952 19.6339 13.6352L18.8412 13.2748C18.709 13.2148 18.5769 13.1547 18.4328 13.0947L17.8562 12.8424C17.7361 12.7944 17.616 12.7343 17.4959 12.6743L16.7031 12.3139C16.571 12.2539 16.4389 12.1938 16.2948 12.1338L15.7182 11.8815C15.5861 11.8215 15.466 11.7614 15.3339 11.7014C15.1056 11.5933 14.8774 11.4852 14.6372 11.3891C14.6732 11.3771 14.6612 11.377 14.6612 11.377Z" fill="#62688F"/>
<path fill-rule="evenodd" clip-rule="evenodd" d="M28.9999 2.41672C35.6734 2.41672 41.0832 7.82649 41.0832 14.5001C41.0832 21.1731 35.6734 26.5834 28.9999 26.5834C22.3263 26.5834 16.9165 21.1731 16.9165 14.5001C16.9165 7.82649 22.3263 2.41672 28.9999 2.41672Z" fill="#2775CA"/>
<path fill-rule="evenodd" clip-rule="evenodd" d="M26.7348 22.9012C26.7348 23.1854 26.5122 23.3469 26.2374 23.2611C22.5839 22.0956 19.9351 18.6698 19.9351 14.6277C19.9351 10.5857 22.5839 7.15976 26.2374 5.99427C26.5122 5.909 26.7348 6.06993 26.7348 6.35416V7.05582C26.7348 7.24503 26.5882 7.46775 26.4079 7.5294C23.5174 8.59082 21.4467 11.3677 21.4467 14.6229C21.4467 17.8781 23.5174 20.6555 26.4079 21.7164C26.5882 21.7828 26.7348 22.0006 26.7348 22.1905V22.9012Z" fill="#F3F3F3"/>
<path fill-rule="evenodd" clip-rule="evenodd" d="M29.7533 20.2902C29.7533 20.4989 29.5828 20.6694 29.3743 20.6694H28.6208C28.4123 20.6694 28.2418 20.4989 28.2418 20.2902V19.0963C26.5927 18.8737 25.7873 17.9494 25.5693 16.6939C25.5313 16.4803 25.7018 16.2862 25.9199 16.2862H26.7823C26.9623 16.2862 27.114 16.4143 27.1519 16.594C27.3131 17.3428 27.7443 17.9162 29.0662 17.9162C30.0423 17.9162 30.7344 17.3712 30.7344 16.5566C30.7344 15.7412 30.3267 15.4334 28.8957 15.1962C26.7823 14.912 25.7825 14.2721 25.7825 12.6137C25.7825 11.3344 26.7493 10.3394 28.2466 10.126V8.95558C28.2466 8.747 28.4173 8.57632 28.6256 8.57632H29.3791C29.5876 8.57632 29.7581 8.747 29.7581 8.95558V10.1592C30.9759 10.3776 31.7483 11.0689 31.9996 12.2156C32.0468 12.4339 31.8763 12.6373 31.6537 12.6373H30.8574C30.6869 12.6373 30.5448 12.5235 30.4927 12.3577C30.2795 11.6283 29.7581 11.3157 28.8529 11.3157C27.8532 11.3157 27.3366 11.7989 27.3366 12.4764C27.3366 13.1919 27.6306 13.5518 29.166 13.7749C31.2412 14.0591 32.3124 14.6514 32.3124 16.4192C32.3124 17.7601 31.3171 18.8453 29.7581 19.0963V20.2902H29.7533Z" fill="#F3F3F3"/>
<path fill-rule="evenodd" clip-rule="evenodd" d="M31.7626 23.2611C31.488 23.3469 31.2651 23.1855 31.2651 22.9012V22.2001C31.2651 21.9915 31.3931 21.7974 31.5921 21.726C34.4826 20.6646 36.5533 17.8877 36.5533 14.6325C36.5533 11.3773 34.4826 8.60045 31.5921 7.53903C31.4121 7.47257 31.2651 7.2548 31.2651 7.0649V6.36379C31.2651 6.07956 31.488 5.91382 31.7626 6.00335C35.416 7.16953 38.0649 10.5953 38.0649 14.6373C38.0604 18.6697 35.416 22.0908 31.7626 23.2611Z" fill="#F3F3F3"/>
</svg>
