<svg width="12" height="13" viewBox="0 0 12 13" fill="none" xmlns="http://www.w3.org/2000/svg">
<path d="M10.9445 8.27255L6.10883 0.227164C6.02407 0.086176 5.87178 0 5.70734 0C5.54318 0 5.39061 0.086176 5.30613 0.227164L0.47014 8.27255C0.347799 8.47655 0.397526 8.7396 0.585985 8.88482L5.42118 12.6152C5.58985 12.7458 5.82521 12.7458 5.99389 12.6152L10.8291 8.88482C11.0173 8.7396 11.0673 8.47655 10.9446 8.27255H10.9445ZM10.1772 8.34828C10.1334 8.44519 10.0528 8.52091 9.95311 8.55878C9.85365 8.59635 9.74318 8.59268 9.64599 8.54889L5.85598 6.83073C5.76161 6.78807 5.65339 6.78807 5.55902 6.83073L1.76902 8.54693C1.67154 8.59271 1.55994 8.59779 1.45907 8.5605C1.3582 8.52348 1.27654 8.44748 1.23218 8.34943C1.18782 8.25139 1.18443 8.13979 1.22314 8.03948C1.26185 7.93917 1.33899 7.85865 1.43759 7.8157L5.54151 5.95513C5.64775 5.90653 5.7698 5.90653 5.87604 5.95513L9.97997 7.8157C10.1811 7.90809 10.2696 8.14628 10.1772 8.34745L10.1772 8.34828Z" fill="#3D3D3D"/>
</svg>
