<svg width="44" height="29" viewBox="0 0 44 29" fill="none" xmlns="http://www.w3.org/2000/svg">
<path d="M14.6732 2.45271V2.46472C14.6852 2.52477 14.6852 2.59684 14.6852 2.66891V11.329C14.6732 11.3771 14.6371 11.3891 14.6011 11.4131C14.3489 11.5332 14.1086 11.6413 13.8564 11.7494C13.5081 11.9056 13.1477 12.0737 12.7994 12.2299L11.5382 12.8064C11.1899 12.9626 10.8416 13.1187 10.5052 13.2749C10.0969 13.467 9.67647 13.6472 9.26809 13.8394C8.91976 13.9955 8.57143 14.1637 8.2111 14.3198C7.92283 14.452 7.63456 14.5721 7.3583 14.7042C7.33427 14.7162 7.31025 14.7282 7.28623 14.7282C7.27422 14.7282 7.27422 14.7282 7.26221 14.7162L7.58651 14.1757C8.2111 13.1427 8.82367 12.1218 9.44826 11.0888C10.1089 9.98377 10.7815 8.87873 11.4421 7.7737C12.0547 6.75274 12.6793 5.73178 13.2919 4.71082C13.7363 3.96613 14.1927 3.22143 14.6371 2.47673C14.6491 2.45271 14.6611 2.44069 14.6611 2.41667H14.6732C14.6611 2.42868 14.6732 2.44069 14.6732 2.45271Z" fill="#8A92B2"/>
<path d="M22.0479 14.7162L22.0599 14.7282L20.2942 15.7732L14.745 19.0523C14.721 19.0643 14.697 19.0763 14.685 19.0883C14.6489 19.0883 14.6489 19.0523 14.6489 19.0403V18.9322V11.5092C14.6489 11.4732 14.6489 11.4251 14.6609 11.3891C14.6729 11.341 14.709 11.3531 14.745 11.3651C14.9012 11.4371 15.0693 11.5092 15.2255 11.5813C15.6939 11.7975 16.1623 12.0137 16.6308 12.2179C17.0392 12.398 17.4355 12.5902 17.8439 12.7704C18.2523 12.9506 18.6607 13.1427 19.0691 13.3229C19.4174 13.479 19.7777 13.6472 20.1261 13.8034C20.4744 13.9595 20.8347 14.1277 21.1831 14.2838C21.4593 14.4039 21.7356 14.536 22.0118 14.6562C22.0118 14.6922 22.0238 14.7042 22.0479 14.7162Z" fill="#454A75"/>
<path d="M14.6727 26.5473C14.6727 26.5593 14.6607 26.5713 14.6607 26.5833H14.6486C14.6486 26.5593 14.6246 26.5473 14.6126 26.5233C13.8679 25.4783 13.1232 24.4213 12.3785 23.3763C11.6218 22.3073 10.8531 21.2263 10.0964 20.1573C9.36369 19.1243 8.61899 18.0794 7.8863 17.0464C7.69412 16.7701 7.50194 16.5059 7.30976 16.2296C7.29775 16.2056 7.28574 16.1936 7.26172 16.1576C7.29775 16.1576 7.32178 16.1816 7.33379 16.1936C8.37877 16.8062 9.41174 17.4187 10.4567 18.0313C11.6578 18.74 12.847 19.4486 14.0481 20.1573L14.6607 20.5177C14.6847 20.5417 14.6847 20.5657 14.6847 20.5897V26.3791C14.6847 26.4392 14.6847 26.4993 14.6727 26.5473Z" fill="#8A92B2"/>
<path d="M7.25 14.7402V14.7282C7.63436 14.5601 8.00671 14.3799 8.39107 14.2117C8.88353 13.9835 9.37599 13.7673 9.86846 13.5391C10.2408 13.3709 10.6252 13.1908 10.9975 13.0226C11.55 12.7704 12.0905 12.5302 12.6431 12.2779C13.0154 12.1098 13.3878 11.9416 13.7721 11.7614C14.0364 11.6413 14.3126 11.5212 14.5769 11.4011C14.6009 11.3891 14.6369 11.3771 14.6489 11.3531C14.661 11.3531 14.661 11.3651 14.6489 11.3771V19.0042C14.6489 19.0403 14.6369 19.0763 14.661 19.1003C14.6369 19.1363 14.6129 19.1003 14.6009 19.0883C14.4928 19.0282 14.3847 18.9682 14.2766 18.8961C11.9584 17.5268 9.62823 16.1455 7.31006 14.7763C7.29805 14.7642 7.27402 14.7522 7.25 14.7402Z" fill="#62688F"/>
<path d="M22.024 16.1576H22.036C22.036 16.1816 22.012 16.2056 22 16.2296C19.7899 19.3405 17.5799 22.4635 15.3698 25.5744C15.1416 25.8987 14.9014 26.223 14.6731 26.5473C14.6611 26.5353 14.6611 26.5233 14.6611 26.5113V26.4392V20.6137V20.5056C15.1656 20.2054 15.6581 19.9171 16.1625 19.6168C18.1084 18.4637 20.0542 17.3227 21.988 16.1696C22 16.1816 22.012 16.1696 22.024 16.1576Z" fill="#62688F"/>
<path d="M14.6612 11.3771V11.3531V11.281V2.56081C14.6612 2.52478 14.6492 2.50076 14.6732 2.46472C17.1115 6.51252 19.5498 10.5483 21.9761 14.5961C22.0001 14.6321 22.0361 14.6802 22.0482 14.7282C21.88 14.6682 21.7239 14.5841 21.5677 14.512C21.3755 14.4279 21.1713 14.3319 20.9792 14.2478C20.859 14.1877 20.7269 14.1397 20.6068 14.0796C20.4026 13.9835 20.1984 13.8994 19.9942 13.8034C19.8741 13.7553 19.754 13.6953 19.6339 13.6352L18.8412 13.2749C18.709 13.2148 18.5769 13.1547 18.4328 13.0947L17.8562 12.8425C17.7361 12.7944 17.616 12.7344 17.4959 12.6743L16.7031 12.314C16.571 12.2539 16.4389 12.1938 16.2948 12.1338L15.7182 11.8816C15.5861 11.8215 15.466 11.7614 15.3339 11.7014C15.1056 11.5933 14.8774 11.4852 14.6372 11.3891C14.6732 11.3771 14.6612 11.3771 14.6612 11.3771Z" fill="#62688F"/>
<path d="M22.6699 16.156L23.3093 11.3523L17.7637 7.5025L22.8306 9.21884L24.0273 7.38283L28.3968 4.67155L38.0281 9.97786L38.5273 18.0741L34.2364 24.0368L30.8448 24.5565L32.5987 21.3461V18.2553L31.3234 15.8415L30.0276 14.9833L28.0344 17.0381V19.2126L26.4787 20.6691L24.5025 20.9084L23.6273 21.4042L22.1913 20.946L21.593 18.7921L22.6699 17.2774V16.156Z" fill="#2C2C2C"/>
<path d="M31.5249 7.46147C30.4685 7.24265 29.3128 7.30077 29.3128 7.30077C29.3128 7.30077 28.9333 9.05472 26.5811 9.51629C26.5981 9.51629 29.6889 10.5728 31.5249 7.46147Z" fill="#94A6C3"/>
<path d="M32.4824 23.377C33.7576 22.3786 34.715 21.0042 35.156 19.4485C35.1765 19.3904 35.3543 19.2878 35.474 19.2092C35.6723 19.0895 35.874 18.9904 35.9116 18.8297C35.9902 18.3715 36.0313 17.8929 36.0313 17.4142C36.0313 17.2364 35.8501 17.0552 35.6723 16.8774C35.5321 16.7578 35.3919 16.6176 35.3919 16.5184C35.1936 14.7029 34.356 13.0071 33.0191 11.7729L32.879 11.913C34.1748 13.1302 35.0124 14.785 35.1936 16.5389C35.2141 16.6996 35.3714 16.8569 35.5321 17.0176C35.6723 17.1373 35.833 17.3185 35.833 17.3971C35.833 17.8553 35.7919 18.3134 35.7133 18.7716C35.6928 18.8502 35.515 18.9322 35.3748 19.0109C35.1765 19.11 34.9953 19.2092 34.9577 19.3699C34.479 21.0657 33.3816 22.5427 31.9251 23.5C32.1849 22.9427 33.002 21.1272 33.4397 20.2075L33.361 17.2569L30.8276 14.8055L29.3916 15.0038L27.8154 17.5578C27.8154 17.5578 28.5539 18.4946 27.5146 19.5921C26.4991 20.6691 25.6991 20.9084 25.6991 20.9084L24.9606 20.5084C25.1794 20.228 25.6204 19.8109 25.9589 19.5306C26.5367 19.0519 27.1145 19.0109 27.1145 18.4946C27.1385 17.4142 25.9794 17.7117 25.9794 17.7117L25.5589 18.1117L25.3811 19.5887L24.5058 20.6862L24.4067 20.6657L22.9707 20.3477C22.9707 20.3477 23.8494 19.8896 23.9896 19.3699C24.1297 18.8707 23.7092 17.2159 23.6887 17.1168C23.7092 17.1373 24.1092 17.4758 24.287 18.033C24.605 17.1544 25.0255 16.3167 25.1452 16.2381C25.2649 16.1594 26.8786 15.3013 26.8786 15.3013L26.3418 16.7167L26.7419 16.4979L27.6992 14.1456C27.6992 14.1456 28.636 13.6875 29.3335 13.6875C30.5882 13.667 32.4447 12.1319 31.6071 9.37955C31.8464 9.47871 35.9937 11.554 36.7117 15.6227C37.2484 18.751 35.474 21.6811 32.4824 23.377Z" fill="#94A6C3"/>
<path d="M27.7368 7.89909C28.1949 7.35889 28.0171 6.56226 28.0171 6.56226L26.6803 8.53844C26.6598 8.53844 27.1555 8.55895 27.7368 7.89909Z" fill="#1B314F"/>
<path d="M23.248 18.6895L23.4087 17.8928C23.4087 17.8928 22.7488 19.0485 22.6907 19.2092C22.6292 19.3904 22.7317 19.7084 22.9882 19.6879C23.248 19.6673 23.566 19.2878 23.566 19.0109C23.566 18.6519 23.248 18.6895 23.248 18.6895Z" fill="#1B314F"/>
<path d="M35.0948 6.00497C35.0948 6.00497 36.0932 6.046 37.1291 6.16567C34.7939 4.32966 32.5819 3.79288 30.7869 3.79288C28.3149 3.79288 26.6396 4.81174 26.537 4.86986L27.3166 3.63218C27.3166 3.63218 24.2053 3.33131 23.1078 6.62381C22.8274 5.92634 22.571 4.90747 22.571 4.90747C22.571 4.90747 20.9538 6.32636 21.7128 8.67864C19.8563 8.00167 17.2066 7.06145 17.104 7.04435C16.9638 7.02384 16.9228 7.08538 16.9228 7.08538C16.9228 7.08538 16.8818 7.1435 17.0014 7.24607C17.2237 7.42044 21.412 10.5146 22.3317 11.113C22.1334 11.831 22.1334 12.1694 22.3317 12.5079C22.612 12.9661 22.6291 13.2054 22.5915 13.5439C22.5505 13.8824 22.1915 16.8159 22.1129 17.1749C22.0342 17.5339 21.1966 18.8092 21.2342 19.1887C21.2752 19.5682 21.7915 21.1819 22.253 21.3631C22.5915 21.4828 23.4292 21.7427 23.9865 21.7427C24.1848 21.7427 24.366 21.7016 24.4446 21.623C24.7831 21.3255 24.8822 21.264 25.1216 21.264C25.1421 21.264 25.1626 21.264 25.1797 21.264C25.2789 21.264 25.3985 21.2845 25.5387 21.2845C25.8567 21.2845 26.2772 21.223 26.5747 20.946C27.0123 20.5084 27.7713 19.9101 28.0106 19.6297C28.3115 19.2502 28.4688 18.7339 28.3902 18.2142C28.3286 17.7356 28.5885 17.315 28.8893 16.8979C29.2688 16.3988 29.9663 15.503 29.9663 15.503C31.3442 16.5355 32.2023 18.1117 32.2023 19.8656C32.2023 22.9769 29.4911 25.4899 26.1404 25.4899C25.6208 25.4899 25.125 25.4318 24.6258 25.3121C26.161 25.8489 27.4568 26.0301 28.5167 26.0301C30.7698 26.0301 31.9664 25.2129 31.9664 25.2129C31.9664 25.2129 31.5493 25.7532 30.8689 26.3686C30.8894 26.3686 30.8894 26.3686 30.8894 26.3686C34.6196 25.8489 36.4351 22.7786 36.4351 22.7786C36.4351 22.7786 36.2949 23.777 36.1171 24.4539C41.0781 20.7238 40.2404 16.0569 40.2199 15.8996C40.2609 15.9577 40.7601 16.556 41.0165 16.8774C41.8166 8.65812 35.0948 6.00497 35.0948 6.00497ZM27.4568 19.1305C27.3781 19.2297 27.0396 19.5306 26.8003 19.7494C26.561 19.9682 26.3011 20.187 26.1028 20.3887C26.0242 20.4674 25.8635 20.5084 25.6242 20.5084C25.5455 20.5084 25.4635 20.5084 25.4054 20.5084C25.3643 20.5084 25.3267 20.5084 25.2857 20.5084C25.2447 20.5084 25.2242 20.5084 25.2071 20.5084C25.1455 20.5084 25.0874 20.5084 25.0258 20.5084C25.3267 20.1084 26.202 19.1921 26.5029 18.9938C26.8619 18.7544 27.0431 18.5151 26.8208 18.098C26.602 17.6775 26.0242 17.78 26.0242 17.78C26.0242 17.78 26.3627 17.6399 26.6636 17.6399C26.284 17.5407 25.8054 17.6399 25.5866 17.8587C25.3472 18.0775 25.3883 18.857 25.2891 19.3528C25.19 19.8725 24.8515 20.1323 24.3318 20.611C24.0514 20.8708 23.8531 20.9494 23.6924 20.9494C23.354 20.8913 22.9539 20.7888 22.6736 20.6896C22.4753 20.4298 22.1744 19.5716 22.0958 19.2126C22.1539 19.0143 22.3932 18.5938 22.5129 18.3544C22.7522 17.8963 22.8924 17.6364 22.9334 17.3971C23.0121 17.0586 23.2719 14.9628 23.371 14.0875C23.6309 14.426 23.9899 14.9867 23.9078 15.3457C24.4856 14.5286 24.0685 13.7285 23.8668 13.4105C23.689 13.0926 23.4497 12.4532 23.648 11.7763C23.8463 11.0993 24.5643 9.22226 24.5643 9.22226C24.5643 9.22226 24.8036 9.6428 25.1421 9.56074C25.4806 9.4821 28.2124 5.37246 28.2124 5.37246C28.2124 5.37246 28.9509 6.98623 28.1713 8.16579C27.3747 9.34192 26.5952 9.56074 26.5952 9.56074C26.5952 9.56074 27.6927 9.75904 28.7081 9.02054C29.1252 9.99837 29.5253 11.0138 29.5458 11.154C29.4842 11.2942 28.6876 13.2088 28.609 13.3285C28.5679 13.3695 28.291 13.4482 28.0893 13.4892C27.7508 13.5883 27.5525 13.6499 27.4704 13.708C27.3303 13.8277 26.6909 15.5816 26.3935 16.4398C26.0345 16.5389 25.6755 16.7407 25.4156 17.1373C25.5558 17.0381 25.9934 16.9766 26.3148 16.939C26.5952 16.9184 27.4499 17.3766 27.6722 18.2348C27.6722 18.2553 27.6722 18.2553 27.6722 18.2758C27.7166 18.5903 27.6175 18.8912 27.4568 19.1305ZM25.5831 19.3699C25.7644 19.11 25.7438 18.6724 25.7644 18.5322C25.7849 18.392 25.8225 18.1322 25.9832 18.0946C26.1439 18.0536 26.5234 18.1151 26.5234 18.392C26.5234 18.6519 26.243 18.71 26.0447 18.8912C25.9011 19.028 25.6208 19.3288 25.5831 19.3699ZM33.5392 15.5577C33.7375 14.5422 33.758 13.6635 33.6999 12.9456C34.476 13.9815 34.9546 15.2397 35.0948 16.5355C35.1153 16.6962 35.2726 16.8535 35.4333 17.0142C35.5735 17.1338 35.7342 17.2945 35.7342 17.3937C35.7342 17.8518 35.6931 18.31 35.6145 18.7715C35.594 18.8297 35.4162 18.9322 35.276 19.0109C35.0777 19.11 34.8965 19.2092 34.8589 19.3699C34.4213 20.905 33.4811 22.2623 32.2263 23.2197C34.0794 21.2845 34.9752 18.0912 33.5392 15.5577ZM32.2844 23.3975C33.5802 22.3991 34.5786 21.0042 35.0162 19.428C35.0367 19.3699 35.2145 19.2673 35.3342 19.1887C35.5325 19.0895 35.7342 18.9698 35.7718 18.8092C35.8504 18.351 35.8915 17.8723 35.8915 17.3937C35.8915 17.2159 35.7102 17.0347 35.5325 16.8569C35.4333 16.7372 35.2726 16.5971 35.2726 16.4979C35.1119 15.0414 34.5341 13.667 33.6383 12.5284C33.2383 10.1351 31.645 9.39663 31.604 9.37611C31.645 9.43766 32.681 10.9318 31.963 12.6857C31.2245 14.4602 29.3304 14.1832 29.1697 14.2003C29.009 14.2003 28.3936 14.997 27.614 16.474C27.5149 16.4329 27.0943 16.3338 26.6157 16.4158C26.9747 15.4175 27.5149 14.002 27.614 13.8824C27.6551 13.8413 27.9525 13.7627 28.1542 13.7046C28.5337 13.6054 28.7115 13.5439 28.7731 13.4652C28.8141 13.4037 29.0124 12.9456 29.2107 12.4669C29.3919 12.4669 29.8501 12.4259 29.8877 12.4054C29.9287 12.3643 30.3082 11.3899 30.3082 11.2702C30.3082 11.1711 29.5287 9.23593 29.2312 8.49743C29.3714 8.33674 29.5116 8.13843 29.6483 7.91962C33.7375 8.36067 36.9308 11.831 36.9308 16.0363C36.9308 19.2673 35.0367 22.0811 32.2844 23.3975Z" fill="#1B314F"/>
<path d="M26.9781 12.6276C27.3576 12.19 27.1593 11.3728 26.4584 11.2326C26.6396 10.8155 26.8961 9.97786 26.8961 9.97786C26.8961 9.97786 24.8617 13.1678 24.684 13.2293C24.5028 13.2909 24.325 12.59 24.325 12.59C23.9455 14.0465 24.9643 14.2448 25.084 13.7866C25.6413 13.643 26.5986 13.0447 26.9781 12.6276Z" fill="#1B314F"/>
<path d="M25.2412 13.4037L26.2772 11.6292C26.2772 11.6292 26.8755 11.9301 26.5746 12.4088C26.1985 12.9661 25.2412 13.4037 25.2412 13.4037Z" fill="#FFD923"/>
<path d="M38.0657 21.623C37.7649 22.023 37.4264 22.4401 37.0298 22.8401C39.6009 17.8928 37.1494 13.3661 37.0503 13.1883C37.2315 13.3695 37.4093 13.5678 37.57 13.7456C39.5427 15.9372 39.7821 19.2297 38.0657 21.623Z" fill="#D82122"/>
<path d="M40.4588 15.2602C39.5596 12.8464 38.2844 10.7916 35.4739 8.93846C32.7627 7.14348 29.8497 7.28366 29.689 7.30417C29.6685 7.30417 29.6479 7.30417 29.6479 7.30417C29.7471 7.26314 29.8463 7.24263 29.9454 7.22554C30.5642 7.02723 31.3609 6.86654 32.1609 6.76739C34.2773 6.4631 36.4107 7.18109 37.8672 8.71964C37.8878 8.74016 37.8878 8.74016 37.9083 8.76067C39.5631 10.5146 40.4212 12.7062 40.4588 15.2602Z" fill="#D82122"/>
<path d="M34.8347 5.38614C31.8636 4.82884 29.9489 5.10579 28.5711 5.62548C28.5301 5.46478 28.3899 5.14681 28.2702 4.88697C27.8565 5.38614 27.4155 5.98447 27.1385 6.36398C26.3795 6.88367 26.0615 7.38285 26.0615 7.38285C26.4992 5.88532 27.7779 4.77072 29.3335 4.49036C29.7712 4.41173 30.2498 4.3707 30.7695 4.3707C32.144 4.39121 33.5184 4.72969 34.8347 5.38614Z" fill="#D82122"/>
<path d="M23.8462 9.2154C21.5145 9.13677 22.2906 6.42208 22.3316 6.2648C22.3316 6.28532 22.4889 8.39826 23.8462 9.2154Z" fill="#D82122"/>
<path d="M26.1404 4.32964C24.3454 5.40662 24.7044 7.97771 24.7044 7.97771C22.988 5.36901 26.0002 4.39118 26.1404 4.32964Z" fill="#D82122"/>
<path d="M23.1895 9.9334C23.3091 10.0326 23.4288 10.2138 23.2886 10.4736C23.21 10.6138 23.0903 10.5933 22.9091 10.5146C22.6698 10.395 21.2338 9.55731 19.938 8.69914C21.415 9.21883 22.9091 9.77613 23.1484 9.89579C23.1484 9.89579 23.1689 9.91631 23.1895 9.9334Z" fill="#2C2C2C"/>
</svg>
